{"title":"Maaya (2017) Web Series 12mbps 1080p WEBHD - DTOne","magnet":"magnet:?xt=urn:btih:b06a2fe408f648d4f278b431c90df9bbd31c1352&dn=Maaya+%282017%29+Web+Series+12mbps+1080p+WEBHD+-+DTOne&tr=udp%3A%2F%2Ftracker.leechers-paradise.org%3A6969&tr=udp%3A%2F%2Fzer0day.ch%3A1337&tr=udp%3A%2F%2Fopen.demonii.com%3A1337&tr=udp%3A%2F%2Ftracker.coppersurfer.tk%3A6969&tr=udp%3A%2F%2Fexodus.desync.com%3A6969","uploader":"SaM","categoryP":"video","categoryS":"hd___tv_shows","size":"19451108625","seeders":"1","leechers":"4","description":"General\r\nComplete name                            : Episode 2.mp4\r\nFormat                                   : MPEG-4\r\nFormat profile                           : Base Media\r\nCodec ID                                 : isom (isom/iso2/avc1/mp41)\r\nFile size                                : 1.93 GiB\r\nDuration                                 : 23 min 15 s\r\nOverall bit rate mode                    : Variable\r\nOverall bit rate                         : 11.9 Mb/s\r\nWriting application                      : Lavf56.40.101\r\n\r\nVideo\r\nID                                       : 1\r\nFormat                                   : AVC\r\nFormat/Info                              : Advanced Video Codec\r\nFormat profile                           : <a href=\"/cdn-cgi/l/email-protection\" class=\"__cf_email__\" data-cfemail=\"89c1e0eee1c9c5bd\">[email&#xA0;protected]</a>\r\nFormat settings                          : CABAC / 4 Ref Frames\r\nFormat settings, CABAC                   : Yes\r\nFormat settings, RefFrames               : 4 frames\r\nCodec ID                                 : avc1\r\nCodec ID/Info                            : Advanced Video Coding\r\nDuration                                 : 23 min 15 s\r\nBit rate                                 : 12.0 Mb/s\r\nWidth                                    : 1 920 pixels\r\nHeight                                   : 816 pixels\r\nDisplay aspect ratio                     : 2.35:1\r\nFrame rate mode                          : Constant\r\nFrame rate                               : 25.000 FPS\r\nColor space                              : YUV\r\nChroma subsampling                       : 4:2:0\r\nBit depth                                : 8 bits\r\nScan type                                : Progressive\r\nBits/(Pixel*Frame)                       : 0.306\r\nStream size                              : 1.90 GiB (98%)\r\nWriting library                          : x264 core 138\r\n\r\nAudio\r\nID                                       : 2\r\nFormat                                   : AAC\r\nFormat/Info                              : Advanced Audio Codec\r\nFormat profile                           : LC\r\nCodec ID                                 : mp4a-40-2\r\nDuration                                 : 23 min 15 s\r\nBit rate mode                            : Variable\r\nBit rate                                 : 192 kb/s\r\nMaximum bit rate                         : 195 kb/s\r\nChannel(s)                               : 2 channels\r\nChannel positions                        : Front: L R\r\nSampling rate                            : 48.0 kHz\r\nFrame rate                               : 46.875 FPS (1024 SPF)\r\nCompression mode                         : Lossy\r\nStream size                              : 32.0 MiB (2%)\r\nDefault                                  : Yes\r\nAlternate group                          : 1\r\n <a href=\"\nhttps://extraimage.net/image/TYEA\" rel=\"nofollow\" target=\"_NEW\">\nhttps://extraimage.net/image/TYEA</a> <a href=\"\nhttps://extraimage.net/image/TYEv\" rel=\"nofollow\" target=\"_NEW\">\nhttps://extraimage.net/image/TYEv</a> <a href=\"\nhttps://extraimage.net/image/TYEu\" rel=\"nofollow\" target=\"_NEW\">\nhttps://extraimage.net/image/TYEu</a> <a href=\"\nhttps://extraimage.net/image/TYEV\" rel=\"nofollow\" target=\"_NEW\">\nhttps://extraimage.net/image/TYEV</a> <a href=\"\nhttps://extraimage.net/image/TYE6\" rel=\"nofollow\" target=\"_NEW\">\nhttps://extraimage.net/image/TYE6</a> <a href=\"\nhttps://extraimage.net/image/TYEx\" rel=\"nofollow\" target=\"_NEW\">\nhttps://extraimage.net/image/TYEx</a> <a href=\"\nhttps://extraimage.net/image/TYEt\" rel=\"nofollow\" target=\"_NEW\">\nhttps://extraimage.net/image/TYEt</a> <a href=\"\nhttps://extraimage.net/image/TYEo\" rel=\"nofollow\" target=\"_NEW\">\nhttps://extraimage.net/image/TYEo</a> <a href=\"\nhttps://extraimage.net/image/TYEk\" rel=\"nofollow\" target=\"_NEW\">\nhttps://extraimage.net/image/TYEk</a> <a href=\"\nhttps://extraimage.net/image/TYEH\" rel=\"nofollow\" target=\"_NEW\">\nhttps://extraimage.net/image/TYEH</a> <a href=\"\nhttps://extraimage.net/image/TYEF\" rel=\"nofollow\" target=\"_NEW\">\nhttps://extraimage.net/image/TYEF</a>","last_updated":"2017-10-23T12:02:45.703Z","parsed":{"xt":"urn:btih:b06a2fe408f648d4f278b431c90df9bbd31c1352","dn":"Maaya (2017) Web Series 12mbps 1080p WEBHD - DTOne","tr":["udp://exodus.desync.com:6969","udp://open.demonii.com:1337","udp://tracker.coppersurfer.tk:6969","udp://tracker.leechers-paradise.org:6969","udp://zer0day.ch:1337"],"infoHash":"b06a2fe408f648d4f278b431c90df9bbd31c1352","infoHashBuffer":{"type":"Buffer","data":[176,106,47,228,8,246,72,212,242,120,180,49,201,13,249,187,211,28,19,82]},"name":"Maaya (2017) Web Series 12mbps 1080p WEBHD - DTOne","announce":["udp://exodus.desync.com:6969","udp://open.demonii.com:1337","udp://tracker.coppersurfer.tk:6969","udp://tracker.leechers-paradise.org:6969","udp://zer0day.ch:1337"],"urlList":[]}}